<svg height="512" viewBox="0 0 64 64" width="512" xmlns="http://www.w3.org/2000/svg"><path d="m44 61h-33l-2-32h37z" fill="#cacaca"/><path d="m60 7-4-4-11.419 11.419a7.068 7.068 0 0 0 -7.581 1.581l-13 13h20l3-3a7.068 7.068 0 0 0 1.581-7.581z" fill="#600000"/><path d="m35 18-7 7 4 4h4l5-5z" fill="#f2f2f2"/><path d="m53.172 4.172h5.657v5.657h-5.657z" fill="#606060" transform="matrix(.707 -.707 .707 .707 11.452 41.648)"/><path d="m14 62a1 1 0 0 1 -1-1v-15a1 1 0 0 1 2 0v15a1 1 0 0 1 -1 1z" fill="#b9d5ee"/><path d="m22 62h-15.867a1 1 0 1 1 0-2h15.867a1 1 0 0 1 0 2z" fill="#d8e6f1"/><path d="m14.133 46a9.133 9.133 0 0 1 -9.095-9.959l1.095-12.041h16l1.1 12.041a9.133 9.133 0 0 1 -9.1 9.959z" fill="#d8e6f1"/><path d="m18.662 30 .582 6.4a5.133 5.133 0 1 1 -10.223 0l.579-6.4z" fill="#700000"/><path d="m9.037 45.619.899 14.381h-3.8a1 1 0 1 0 0 2h37.864a1 1 0 0 0 1-.938l.25-4a1 1 0 1 0 -2-.124l-.189 3.062h-28.061v-13.046a10.117 10.117 0 0 0 9.224-11l-.541-5.954h21.253l-1.122 17.938a1 1 0 0 0 .936 1.062h.063a1 1 0 0 0 1-.938l1.187-19a.967.967 0 0 0 -.655-.991l1.364-1.364a8.07 8.07 0 0 0 2.022-8.022l6.978-6.978 4-4a1 1 0 0 0 0-1.414l-4-4a1 1 0 0 0 -1.414 0l-4 4-6.978 6.978a8.074 8.074 0 0 0 -8.022 2.022l-2 2-7 7-3.709 3.707h-.086l-.372-4.09a1 1 0 0 0 -1-.91h-16a1 1 0 0 0 -1 .91l-1.086 12.041a10.1 10.1 0 0 0 5 9.668zm2.902 14.381-.839-13.471a10.12 10.12 0 0 0 1.9.4v13.071zm44.061-55.586 2.586 2.586-2.586 2.586-2.586-2.586zm-11.783 10.936a.994.994 0 0 0 1.071-.224l6.712-6.712 2.586 2.586-6.712 6.712a1 1 0 0 0 -.225 1.072 6.072 6.072 0 0 1 -1.356 6.509l-2.707 2.707h-5.172l3.293-3.293a1 1 0 0 0 0-1.414l-5.293-5.293 1.293-1.293a6.074 6.074 0 0 1 6.51-1.357zm-9.217 4.064 4.586 4.586-4 4h-3.172l-3-3zm-7 7 1.586 1.586h-3.172zm-21.966 9.717 1.012-11.131h14.174l1.011 11.131a8.132 8.132 0 1 1 -16.2 0z"/><path d="m14.133 43a6.134 6.134 0 0 0 6.107-6.687l-.582-6.4a1 1 0 0 0 -1-.91h-9.058a1 1 0 0 0 -1 .91l-.582 6.4a6.134 6.134 0 0 0 6.115 6.687zm-3.616-12h7.232l.5 5.494a4.132 4.132 0 1 1 -8.23 0z"/><circle cx="44.458" cy="52.583" r="1"/></svg>