<svg height="60" viewBox="0 0 60 60" width="60" xmlns="http://www.w3.org/2000/svg"><g id="Page-1" fill="none" fill-rule="evenodd"><g id="022---Wine-Tasting" fill-rule="nonzero" transform="translate(-1)"><path id="Shape" d="m54 17-3.33 4h-7.67c2.3423408-1.0334856 4.4797004-2.4798447 6.31-4.27 1.5514792.2361884 3.1216661.3265829 4.69.27z" fill="#bb193b"/><path id="Shape" d="m37.8 22.85-1.57 11.5v.19c-2.6307145.9867825-5.4203863 1.4816696-8.23 1.46-4 0-11-1-16-7l-10-12c1.55501559.054092 3.11169516-.0362958 4.65-.27 1.93 1.97 8.35 7.27 21.35 7.27 3.3019503.0288455 6.5944301-.3575169 9.8-1.15z" fill="#ef314c"/><path id="Shape" d="m34.72 23.47-1.49 10.88v.19c-2.1533027.8236169-4.4190682 1.3158814-6.72 1.46h1.49c2.8022793.0224163 5.5849311-.4690386 8.21-1.45v-.19l1.57-11.5c-.94.24-1.98.43-3.06.61z" fill="#bb193b"/><path id="Shape" d="m54 17c-1.5550156.054092-3.1116952-.0362958-4.65-.27-2.9458757-.396465-5.7726349-1.4194176-8.29-3-.3651695-.2256827-.7189363-.4693145-1.06-.73-2.7-2.15-4.22-3.15-6-3.29-1.5449452-.02576044-3.0801413.24935214-4.52.81-.9772914.3013876-2.0227086.3013876-3 0-1.4273565-.5555592-2.948475-.83058285-4.48-.81-1.78.14-3.3 1.14-6 3.29-.340167.2743195-.6939495.5313124-1.06.77-2.5166806 1.5819849-5.34375278 2.6050509-8.29 3-1.53954906.2203331-3.09622245.2973298-4.65.23 7-5 6-7.33 12-13.33 4-4 9-2.64 11.79-1.3 1.3933492.68656633 3.0266508.68656633 4.42 0 2.79-1.37 7.79-2.74 11.79 1.3 6 6 5 8.33 12 13.33z" fill="#ef314c"/><path id="Shape" d="m42 3.67c-2.0250443-2.10347086-4.9650058-3.05970833-7.84-2.55 1.8446414.31017071 3.5411102 1.20397141 4.84 2.55 6 6 5 8.3 11.87 13.24 1.040365.096412 2.085814.1264728 3.13.09-7-5-6-7.33-12-13.33z" fill="#bb193b"/><path id="Shape" d="m41.06 13.77c-1.06.62-3.06 1.47-7.06 1.92v-6c1.78.14 3.3 1.14 6 3.29.3397065.2811403.6934971.5448144 1.06.79z" fill="#f5f5f5"/><path id="Shape" d="m40 13c-2.7-2.15-4.22-3.15-6-3.29v1.1c1.0422321.6703175 2.0439753 1.4015901 3 2.19.340167.2743195.6939495.5313124 1.06.77-1.267431.6923377-2.6384492 1.1752333-4.06 1.43v.49c4-.45 6-1.3 7.06-1.92-.3660505-.2386876-.719833-.4956805-1.06-.77z" fill="#cfd8dc"/><path id="Shape" d="m34 9.71v6c-1.9928529.2107523-3.9961112.3075765-6 .29v-5.26c.5015755.0013152 1.0004939-.0728483 1.48-.22 1.4398587-.56064786 2.9750548-.83576044 4.52-.81z" fill="#f5f5f5"/><path id="Shape" d="m28 10.74v5.26c-2.0042697.0109343-4.0075292-.0925675-6-.31v-6c1.5449452-.02576044 3.0801413.24935214 4.52.81.4784663.1539328.977408.2348423 1.48.24z" fill="#f5f5f5"/><path id="Shape" d="m22 9.71v6c-3.95-.45-6-1.3-7.06-1.92.3665029-.2451856.7202935-.5088597 1.06-.79 2.7-2.15 4.22-3.15 6-3.29z" fill="#f5f5f5"/><path id="Shape" d="m49.35 16.73c-1.8422407 1.7941358-3.993453 3.2406991-6.35 4.27h-4.07c-.501932-.0049401-.9297504.3629837-1 .86l-.14 1c-3.2027522.7882824-6.4918138 1.1712784-9.79 1.14-13 0-19.42-5.3-21.35-7.27 2.94624722-.3949491 5.7733194-1.4180151 8.29-3 1 .62 3.11 1.47 7.06 1.92 1.9917059.2307968 3.9949678.3476537 6 .35 2.0042697.0109343 4.0075292-.0925675 6-.31 4-.45 6-1.3 7.06-1.92 2.5206534 1.5665079 5.3472135 2.5757501 8.29 2.96z" fill="#37474f"/><path id="Shape" d="m59.27 37.21c-3.56-.37-3.82-3.21-7.88-3.21-4.33 0-4.33 3.25-8.67 3.25-3.45 0-4.15-2.06-6.48-2.9l1.57-11.5.14-1c.0702496-.4970163.498068-.8649401 1-.86h17.23c.501932-.0049401.9297504.3629837 1 .86z" fill="#02a9f4"/><path id="Shape" d="m54.17 21.86 1.92 14c.9082795.7412212 2.0138058 1.2001189 3.18 1.32l-2.1-15.35c-.0702496-.4970163-.498068-.8649401-1-.86l-3-.0000492c.5120317-.003057.9436849.3811143 1 .8900492z" fill="#0377bc"/><path id="Shape" d="m59.76 45.4c-.6439336 2.6170901-2.3169906 4.8634576-4.64 6.23-2.7130111 1.5552535-4.5576591 4.2742647-5 7.37h-5.12c-.4466446-3.0940692-2.2901278-5.8113634-5-7.37-2.3268019-1.3645298-4.0036762-3.6111808-4.65-6.23-.2730304-1.194208-.3171429-2.4293572-.13-3.64l1-7.41c2.33.84 3 2.9 6.48 2.9 4.34 0 4.34-3.25 8.67-3.25 4.06 0 4.32 2.84 7.88 3.21l.62 4.55c.1937071 1.2093813.1563814 2.4445225-.11 3.64z" fill="#ef314c"/><path id="Shape" d="m59.89 41.76-.62-4.55c-3.56-.37-3.82-3.21-7.88-3.21-.5044289-.0033039-1.0076174.0503696-1.5.16 2.69.59 3.32 2.73 6.38 3.05l.62 4.55c.1871429 1.2106428.1430304 2.445792-.13 3.64-.6439336 2.6170901-2.3169906 4.8634576-4.64 6.23-2.7130111 1.5552535-4.5576591 4.2742647-5 7.37h3c.4423409-3.0957353 2.2869889-5.8147465 5-7.37 2.3230094-1.3665424 3.9960664-3.6129099 4.64-6.23.2730304-1.194208.3171429-2.4293572.13-3.64z" fill="#bb193b"/><circle id="Oval" cx="13.5" cy="44.5" fill="#ffdc00" r="2.5"/><path id="Shape" d="m17 8c-.1568771.00187716-.3116796-.03596343-.45-.11-.490313-.24957563-.6869243-.84834645-.44-1.34 1.26-2.55 4.74-2.55 4.89-2.55.5522847 0 1 .44771525 1 1s-.4477153 1-1 1c0 0-2.41.06-3.11 1.45-.1694502.33627965-.5134418.5488587-.89.55z" fill="#f5f5f5"/><path id="Shape" d="m42 49.18c-.1760862-.0018287-.3485672-.0501234-.5-.14-1.630443-.9539326-2.8061359-2.5263317-3.26-4.36-.1839889-.8280686-.2043709-1.6841133-.06-2.52.0745584-.5522847.5827153-.9395584 1.135-.865s.9395584.5827153.865 1.135c-.1076681.585088-.1076681 1.184912 0 1.77.3293737 1.3091743 1.1682325 2.4324531 2.33 3.12.4688966.2813806.6248121.8872238.35 1.36-.1775523.3075445-.5048889.4978565-.86.5z" fill="#f5f5f5"/><path id="Shape" d="m25 32c-5.35 0-7.61-2.2-7.71-2.29-.3921222-.3893607-.3943607-1.0228778-.005-1.415s1.0228778-.3943607 1.415-.005c.05 0 1.89 1.71 6.3 1.71.5522847 0 1 .4477153 1 1s-.4477153 1-1 1z" fill="#f5f5f5"/><g fill="#02a9f4"><path id="Shape" d="m25 46c-.5522847 0-1-.4477153-1-1v-2c0-.5522847.4477153-1 1-1s1 .4477153 1 1v2c0 .5522847-.4477153 1-1 1z"/><path id="Shape" d="m25 52c-.5522847 0-1-.4477153-1-1v-2c0-.5522847.4477153-1 1-1s1 .4477153 1 1v2c0 .5522847-.4477153 1-1 1z"/><path id="Shape" d="m29 48h-2c-.5522847 0-1-.4477153-1-1s.4477153-1 1-1h2c.5522847 0 1 .4477153 1 1s-.4477153 1-1 1z"/><path id="Shape" d="m23 48h-2c-.5522847 0-1-.4477153-1-1s.4477153-1 1-1h2c.5522847 0 1 .4477153 1 1s-.4477153 1-1 1z"/></g><path id="Shape" d="m6.5 35.5c-.26580298.0015368-.52128117-.1028135-.71-.29-.18931265-.1877666-.29579832-.4433625-.29579832-.71s.10648567-.5222334.29579832-.71l1.5-1.5c.39212218-.3921221 1.02787781-.3921221 1.41999996 0 .39212216.3921222.39212218 1.0278778.00000004 1.42l-1.5 1.5c-.18871883.1871865-.44419702.2915368-.71.29z" fill="#9d27b0"/><path id="Shape" d="m2 40c-.26580298.0015368-.52128117-.1028135-.71-.29-.18931265-.1877666-.29579832-.4433625-.29579832-.71s.10648567-.5222334.29579832-.71l1.5-1.5c.39212218-.3921221 1.02787781-.3921221 1.41999996 0 .39212216.3921222.39212218 1.0278778.00000004 1.42l-1.5 1.5c-.18871883.1871865-.44419702.2915368-.71.29z" fill="#9d27b0"/><path id="Shape" d="m8 40c-.26580298.0015368-.52128117-.1028135-.71-.29l-1.5-1.5c-.39212214-.3921222-.39212212-1.0278778.00000004-1.42.39212215-.3921221 1.02787778-.3921221 1.41999996 0l1.5 1.5c.18931265.1877666.29579832.4433625.29579832.71s-.10648567.5222334-.29579832.71c-.18871883.1871865-.44419702.2915368-.71.29z" fill="#9d27b0"/><path id="Shape" d="m3.5 35.5c-.26580298.0015368-.52128117-.1028135-.71-.29l-1.5-1.5c-.39212214-.3921222-.39212212-1.0278778.00000004-1.42.39212215-.3921221 1.02787778-.3921221 1.41999996 0l1.5 1.5c.18931265.1877666.29579832.4433625.29579832.71s-.10648567.5222334-.29579832.71c-.18871883.1871865-.44419702.2915368-.71.29z" fill="#9d27b0"/><path id="Shape" d="m10 44.5c0 1.9329966 1.5670034 3.5 3.5 3.5s3.5-1.5670034 3.5-3.5-1.5670034-3.5-3.5-3.5-3.5 1.5670034-3.5 3.5zm5 0c0 .8284271-.6715729 1.5-1.5 1.5s-1.5-.6715729-1.5-1.5.6715729-1.5 1.5-1.5 1.5.6715729 1.5 1.5z" fill="#000"/><path id="Shape" d="m60.88 41.62-2.72-19.88c-.1313358-1.0019841-.9894814-1.7485708-2-1.74h-3.35l2-2.36c.0911925-.100831.159428-.2202431.2-.35.1169928-.4071453-.0352461-.8438306-.38-1.09-2.7269827-1.8307375-5.0372468-4.2159659-6.78-7-1.4947862-2.23850577-3.2173012-4.31624759-5.14-6.2-4.53-4.52-10-2.87-12.93-1.49-1.1212652.5571703-2.4387348.5571703-3.56 0-2.89-1.43-8.4-3.08-12.93 1.49-1.905263 1.88621946-3.61094992 3.96387348-5.09 6.2-1.74275323 2.7840341-4.0530173 5.1692625-6.78 7-.35557125.2339347-.52410337.667303-.42 1.08.04057204.1297569.10880754.249169.2.35l10 12c5.33 6.37 12.8 7.37 16.74 7.37h.17c2.3323812-.0060882 4.652124-.3427707 6.89-1l-.77 5.63c-.2057181 1.3306885-.1548018 2.688456.15 4 .7167384 2.8757668 2.5576728 5.3435556 5.11 6.85 2.448265 1.4027097 4.1124279 3.8565197 4.51 6.65.0656679.500992.4947407.8742854 1 .87h5.18c.5052593.0042854.9343321-.369008 1-.87.3902279-2.788232 2.0477083-5.2393834 4.49-6.64 2.5447322-1.5126671 4.3805219-3.9783847 5.1-6.85.292849-1.3207044.3301875-2.6852573.11-4.02zm-2.8-5.71c-.6268996-.2840926-1.2149828-.6470239-1.75-1.08-2.8393024-2.4354014-7.0306976-2.4354014-9.87 0-2.1280149 1.8987815-5.3419851 1.8987815-7.47 0-.5204538-.4110944-1.075909-.7758209-1.66-1.09l1.6-11.74h17.25zm-23.08-24.98c1.5104766.6493295 2.9027231 1.5448278 4.12 2.65-1.3353874.4738025-2.7159951.8089014-4.12 1zm-2 3.86c-1.17.11-2.5.18-4 .2v-3.34c.2640337-.0409394.5247266-.1010993.78-.18 1.0425059-.3696625 2.1222252-.6245031 3.22-.76zm-6 .21c-1.5 0-2.83-.09-4-.2v-4.09c1.0968937.1403831 2.1760974.395102 3.22.76.2552734.0789007.5159663.1390606.78.18zm-6-.43c-1.4040049-.1910986-2.7846126-.5261975-4.12-1 1.2180145-1.1016205 2.6102187-1.9937125 4.12-2.64zm-6 .34c2 1 5.8 2.09 13.05 2.09s11-1.07 13-2.08c1.9064221 1.1228119 3.9788181 1.9362442 6.14 2.41-1.3535408 1.0539186-2.8230716 1.9497285-4.38 2.67h-3.88c-1.0038641-.0098802-1.8595008.7259675-2 1.72v.3c-2.9291282.6686768-5.9255677.9975134-8.93.98-10.31 0-16.27-3.33-19.19-5.67 2.1803624-.4674915 4.2707116-1.2847201 6.19-2.42zm36.89 3.09-1.69 2h-3.31c1.0030337-.6562182 1.9466419-1.3990587 2.82-2.22.81.11 1.55.22 2.18.22zm-42-7.65c1.4063095-2.16402452 3.0351767-4.17497163 4.86-6 3.47-3.47 7.7-2.51 10.64-1.1 1.6737006.8105307 3.6262994.8105307 5.3 0 2.9-1.39 7.13-2.35 10.6 1.12 1.8248233 1.82502837 3.4536905 3.83597548 4.86 6 1.3316398 2.0779776 2.9663627 3.9452694 4.85 5.54-.46 0-.95-.09-1.47-.17-2.7946288-.3676206-5.4799898-1.3218098-7.88-2.8-.3466314-.2209691-.6804971-.4613524-1-.72-3.11-2.49-4.88-3.53-7.09-3.53-1.4854185.07026149-2.9518208.36354196-4.35.87-.7687639.23734799-1.5912361.23734799-2.36 0-5-1.57-6.62-1.2-11.46 2.67-.3173626.255356-.6514407.4892107-1 .7-2.3974801 1.4852822-5.08367818 2.4431777-7.88 2.81-.53.08-1 .13-1.48.17 1.87606085-1.6091079 3.50072387-3.4899419 4.82-5.58zm18.21 24.65h-.16c-3.64 0-10.39-.87-15.17-6.63l-8.65-10.37c.63 0 1.37-.09 2.18-.2 2.53 2.41 9.11 7.2 21.7 7.2 2.8958708.0126458 5.7850587-.2789543 8.62-.87l-1.32 9.67c-2.3168043.7966791-4.7500459 1.2022193-7.2 1.2zm30.69 10.16c-.5880773 2.3532554-2.0932725 4.3733859-4.18 5.61-2.7028667 1.559589-4.6260493 4.1831005-5.3 7.23h-3.5c-.6762469-3.0458594-2.5988162-5.6685341-5.3-7.23-2.0920429-1.2329199-3.6015853-3.2540494-4.19-5.61-.2418703-1.070013-.2791929-2.1761168-.11-3.26l.82-6c.26.17.5.35.75.54 2.8441025 2.4326667 7.0358975 2.4326667 9.88 0 2.1280149-1.8987815 5.3419851-1.8987815 7.47 0 .9419405.7927481 2.0541373 1.3574018 3.25 1.65l.52 3.81c.1679936 1.0839556.1306787 2.1898339-.11 3.26z" fill="#000"/></g></g></svg>