<svg height="434pt" viewBox="0 -12 434.16745 434" width="434pt" xmlns="http://www.w3.org/2000/svg"><path d="m421.882812 204.882812c0 113.109376-91.691406 204.800782-204.800781 204.800782-113.105469 0-204.800781-91.691406-204.800781-204.800782 0-113.105468 91.695312-204.8007808 204.800781-204.8007808 113.109375 0 204.800781 91.6953128 204.800781 204.8007808zm0 0" fill="#ffdea2"/><path d="m420.507812 211.710938c-30.394531-60.019532-117.496093-102.402344-203.425781-102.402344-85.925781 0-173.03125 42.382812-203.425781 102.402344 30.394531 60.019531 117.496094 102.398437 203.425781 102.398437 67.367188 0 140.71875-26.050781 178.015625-66.226563" fill="#fff"/><path d="m217.082031 327.765625c-92.679687 0-183.359375-46.214844-215.613281-109.882813-1.957031-3.878906-1.957031-8.464843 0-12.34375 32.253906-63.667968 122.933594-109.882812 215.613281-109.882812 92.679688 0 183.363281 46.214844 215.613281 109.882812 3.402344 6.730469.707032 14.945313-6.011718 18.359376-6.800782 3.398437-14.945313.691406-18.359375-6.011719-27.402344-54.125-109.613281-94.921875-191.242188-94.921875-78.492187 0-157.53125 37.730468-187.851562 88.746094 30.320312 51.011718 109.359375 88.746093 187.851562 88.746093 65.105469 0 134.199219-25.441406 168.011719-61.867187 5.109375-5.53125 13.761719-5.867188 19.296875-.707032 5.519531 5.121094 5.839844 13.761719.707031 19.292969-39.1875 42.214844-114.75 70.589844-188.015625 70.589844zm0 0" fill="#5c128d"/><path d="m319.484375 211.710938c0 56.554687-45.847656 102.398437-102.402344 102.398437-56.554687 0-102.398437-45.84375-102.398437-102.398437 0-56.554688 45.84375-102.402344 102.398437-102.402344 56.554688 0 102.402344 45.847656 102.402344 102.402344zm0 0" fill="#26deeb"/><path d="m217.082031 327.765625c-63.984375 0-116.050781-52.070313-116.050781-116.054687 0-63.988282 52.066406-116.054688 116.050781-116.054688 63.988281 0 116.054688 52.066406 116.054688 116.054688 0 63.984374-52.066407 116.054687-116.054688 116.054687zm0-204.800781c-48.933593 0-88.746093 39.8125-88.746093 88.746094 0 48.933593 39.8125 88.746093 88.746093 88.746093 48.933594 0 88.746094-39.8125 88.746094-88.746093 0-48.933594-39.8125-88.746094-88.746094-88.746094zm0 0" fill="#5c128d"/><path d="m271.695312 211.710938c0 30.160156-24.449218 54.613281-54.613281 54.613281-30.160156 0-54.613281-24.453125-54.613281-54.613281 0-30.164063 24.453125-54.613282 54.613281-54.613282 30.164063 0 54.613281 24.449219 54.613281 54.613282zm0 0" fill="#5c128d"/><path d="m203.429688 177.578125c0 15.078125-12.226563 27.304687-27.308594 27.304687-15.078125 0-27.304688-12.226562-27.304688-27.304687 0-15.082031 12.226563-27.308594 27.304688-27.308594 15.082031 0 27.308594 12.226563 27.308594 27.308594zm0 0" fill="#fff"/></svg>